<svg width="248" height="97" viewBox="0 0 248 97" fill="none" xmlns="http://www.w3.org/2000/svg">
<path d="M36.5308 39.23H41.8708V59H38.6608V42.32H36.5308V39.23ZM45.8317 57.29C45.8317 56.81 46.0017 56.41 46.3417 56.09C46.7017 55.75 47.1017 55.58 47.5417 55.58C47.9417 55.58 48.3117 55.75 48.6517 56.09C49.0117 56.41 49.1917 56.81 49.1917 57.29C49.1917 57.81 49.0117 58.23 48.6517 58.55C48.3117 58.85 47.9417 59 47.5417 59C47.1017 59 46.7017 58.85 46.3417 58.55C46.0017 58.23 45.8317 57.81 45.8317 57.29ZM63.06 59V37.22H69.12C71.28 37.22 73.12 37.55 74.64 38.21C76.16 38.87 77.38 39.74 78.3 40.82C79.24 41.9 79.92 43.1 80.34 44.42C80.78 45.74 81 47.07 81 48.41C81 50.03 80.71 51.49 80.13 52.79C79.55 54.09 78.76 55.21 77.76 56.15C76.76 57.07 75.61 57.78 74.31 58.28C73.01 58.76 71.63 59 70.17 59H63.06ZM66.27 55.91H69.57C70.75 55.91 71.83 55.74 72.81 55.4C73.81 55.06 74.67 54.56 75.39 53.9C76.13 53.24 76.7 52.43 77.1 51.47C77.5 50.51 77.7 49.41 77.7 48.17C77.7 46.83 77.47 45.67 77.01 44.69C76.57 43.69 75.98 42.87 75.24 42.23C74.5 41.57 73.67 41.09 72.75 40.79C71.85 40.47 70.93 40.31 69.99 40.31H66.27V55.91ZM82.2853 59L91.8553 36.35H92.0353L101.605 59H97.9453L90.9853 41.36L93.2953 39.83L85.4353 59H82.2853ZM88.1053 50.84H95.8453L96.9553 53.6H87.1453L88.1053 50.84ZM120.852 37.22C123.052 37.22 124.782 37.67 126.042 38.57C127.322 39.47 127.962 40.85 127.962 42.71C127.962 43.91 127.682 44.94 127.122 45.8C126.582 46.66 125.822 47.33 124.842 47.81C123.882 48.27 122.742 48.53 121.422 48.59L120.942 46.88C122.482 46.92 123.852 47.19 125.052 47.69C126.272 48.17 127.232 48.85 127.932 49.73C128.652 50.59 129.012 51.62 129.012 52.82C129.012 53.92 128.802 54.87 128.382 55.67C127.982 56.45 127.432 57.09 126.732 57.59C126.052 58.07 125.272 58.43 124.392 58.67C123.532 58.89 122.632 59 121.692 59H115.062V37.22H120.852ZM121.422 46.64C122.542 46.64 123.362 46.32 123.882 45.68C124.402 45.04 124.662 44.28 124.662 43.4C124.662 42.32 124.322 41.54 123.642 41.06C122.982 40.56 122.102 40.31 121.002 40.31H118.272V46.64H121.422ZM121.542 56.03C122.322 56.03 123.022 55.92 123.642 55.7C124.282 55.46 124.782 55.11 125.142 54.65C125.522 54.17 125.712 53.57 125.712 52.85C125.712 52.05 125.492 51.43 125.052 50.99C124.632 50.53 124.082 50.21 123.402 50.03C122.742 49.83 122.052 49.73 121.332 49.73H118.272V56.03H121.542ZM137.113 59.51C135.953 59.51 135.003 59.16 134.263 58.46C133.523 57.76 133.133 56.86 133.093 55.76V46.43H136.183V54.65C136.223 55.29 136.403 55.82 136.723 56.24C137.063 56.64 137.603 56.85 138.343 56.87C139.023 56.87 139.623 56.67 140.143 56.27C140.683 55.85 141.103 55.29 141.403 54.59C141.723 53.87 141.883 53.05 141.883 52.13V46.43H144.973V59H142.183L141.943 56.09L142.063 56.57C141.803 57.13 141.433 57.64 140.953 58.1C140.473 58.54 139.903 58.88 139.243 59.12C138.583 59.38 137.873 59.51 137.113 59.51ZM157.504 59.3C156.364 59.3 155.364 59.07 154.504 58.61C153.664 58.13 152.984 57.53 152.464 56.81L152.794 55.94V59H149.704V35.69H152.764V49.16L152.704 48.05C153.184 47.41 153.884 46.89 154.804 46.49C155.724 46.09 156.754 45.89 157.894 45.89C159.014 45.89 160.034 46.16 160.954 46.7C161.894 47.24 162.634 48.01 163.174 49.01C163.734 49.99 164.014 51.16 164.014 52.52C164.014 53.92 163.714 55.13 163.114 56.15C162.514 57.17 161.714 57.95 160.714 58.49C159.734 59.03 158.664 59.3 157.504 59.3ZM156.844 56.69C157.604 56.69 158.284 56.51 158.884 56.15C159.504 55.79 159.994 55.29 160.354 54.65C160.714 54.01 160.894 53.29 160.894 52.49C160.894 51.71 160.714 51.01 160.354 50.39C159.994 49.77 159.504 49.28 158.884 48.92C158.284 48.54 157.604 48.35 156.844 48.35C156.184 48.35 155.574 48.47 155.014 48.71C154.454 48.95 153.984 49.28 153.604 49.7C153.224 50.12 152.954 50.61 152.794 51.17V53.84C152.954 54.4 153.224 54.9 153.604 55.34C153.984 55.76 154.444 56.09 154.984 56.33C155.544 56.57 156.164 56.69 156.844 56.69ZM175.463 59.3C174.323 59.3 173.323 59.07 172.463 58.61C171.623 58.13 170.943 57.53 170.423 56.81L170.753 55.94V59H167.663V35.69H170.723V49.16L170.663 48.05C171.143 47.41 171.843 46.89 172.763 46.49C173.683 46.09 174.713 45.89 175.853 45.89C176.973 45.89 177.993 46.16 178.913 46.7C179.853 47.24 180.593 48.01 181.133 49.01C181.693 49.99 181.973 51.16 181.973 52.52C181.973 53.92 181.673 55.13 181.073 56.15C180.473 57.17 179.673 57.95 178.673 58.49C177.693 59.03 176.623 59.3 175.463 59.3ZM174.803 56.69C175.563 56.69 176.243 56.51 176.843 56.15C177.463 55.79 177.953 55.29 178.313 54.65C178.673 54.01 178.853 53.29 178.853 52.49C178.853 51.71 178.673 51.01 178.313 50.39C177.953 49.77 177.463 49.28 176.843 48.92C176.243 48.54 175.563 48.35 174.803 48.35C174.143 48.35 173.533 48.47 172.973 48.71C172.413 48.95 171.943 49.28 171.563 49.7C171.183 50.12 170.913 50.61 170.753 51.17V53.84C170.913 54.4 171.183 54.9 171.563 55.34C171.943 55.76 172.403 56.09 172.943 56.33C173.503 56.57 174.123 56.69 174.803 56.69ZM185.622 35.69H188.712V59H185.622V35.69ZM199.325 59.3C197.865 59.3 196.615 59.02 195.575 58.46C194.535 57.88 193.735 57.09 193.175 56.09C192.615 55.07 192.335 53.91 192.335 52.61C192.335 51.37 192.645 50.25 193.265 49.25C193.905 48.23 194.755 47.42 195.815 46.82C196.895 46.22 198.085 45.92 199.385 45.92C201.065 45.92 202.455 46.41 203.555 47.39C204.675 48.37 205.425 49.74 205.805 51.5L195.575 55.04L194.855 53.24L203.045 50.3L202.415 50.69C202.175 50.07 201.795 49.53 201.275 49.07C200.755 48.59 200.045 48.35 199.145 48.35C198.425 48.35 197.775 48.53 197.195 48.89C196.635 49.23 196.185 49.71 195.845 50.33C195.525 50.93 195.365 51.64 195.365 52.46C195.365 53.3 195.535 54.04 195.875 54.68C196.235 55.3 196.715 55.79 197.315 56.15C197.935 56.51 198.625 56.69 199.385 56.69C199.925 56.69 200.435 56.59 200.915 56.39C201.415 56.19 201.885 55.94 202.325 55.64L203.735 57.92C203.075 58.34 202.355 58.68 201.575 58.94C200.815 59.18 200.065 59.3 199.325 59.3Z" fill="#F8F5EC"/>
</svg>
