<svg width="92" height="43" viewBox="0 0 92 43" fill="none" xmlns="http://www.w3.org/2000/svg">
<g opacity="0.5">
<rect x="0.5" y="0.5" width="91" height="42" rx="21" stroke="#F8F5EC"/>
<path d="M36.692 16.684C36.3467 16.5067 35.9687 16.3527 35.558 16.222C35.1473 16.0913 34.746 16.026 34.354 16.026C33.8127 16.026 33.3787 16.152 33.052 16.404C32.7347 16.656 32.576 16.992 32.576 17.412C32.576 17.7293 32.6787 18 32.884 18.224C33.0893 18.4387 33.36 18.6253 33.696 18.784C34.032 18.9427 34.382 19.092 34.746 19.232C35.0633 19.3533 35.376 19.4887 35.684 19.638C35.992 19.7873 36.2673 19.974 36.51 20.198C36.762 20.422 36.958 20.6973 37.098 21.024C37.2473 21.3507 37.322 21.7567 37.322 22.242C37.322 22.774 37.1867 23.2593 36.916 23.698C36.6547 24.1367 36.2767 24.482 35.782 24.734C35.2873 24.986 34.6993 25.112 34.018 25.112C33.57 25.112 33.1407 25.0607 32.73 24.958C32.3287 24.8553 31.9553 24.7247 31.61 24.566C31.2647 24.398 30.9567 24.2253 30.686 24.048L31.288 22.984C31.512 23.1427 31.7687 23.2967 32.058 23.446C32.3473 23.586 32.6507 23.7027 32.968 23.796C33.2853 23.88 33.5933 23.922 33.892 23.922C34.2093 23.922 34.522 23.866 34.83 23.754C35.1473 23.6327 35.4087 23.4507 35.614 23.208C35.8193 22.9653 35.922 22.6433 35.922 22.242C35.922 21.8967 35.8287 21.612 35.642 21.388C35.4647 21.1547 35.2267 20.9587 34.928 20.8C34.6293 20.632 34.312 20.4827 33.976 20.352C33.6587 20.2307 33.3367 20.1 33.01 19.96C32.6833 19.8107 32.38 19.6333 32.1 19.428C31.82 19.2133 31.596 18.952 31.428 18.644C31.26 18.336 31.176 17.9627 31.176 17.524C31.176 16.992 31.302 16.53 31.554 16.138C31.8153 15.7367 32.17 15.424 32.618 15.2C33.066 14.9667 33.5793 14.8407 34.158 14.822C34.8113 14.822 35.3853 14.9013 35.88 15.06C36.384 15.2187 36.8273 15.4147 37.21 15.648L36.692 16.684ZM41.9704 25.14C41.3078 25.14 40.7384 25.0093 40.2624 24.748C39.7864 24.4773 39.4178 24.1133 39.1564 23.656C38.9044 23.1893 38.7784 22.6573 38.7784 22.06C38.7784 21.4907 38.9231 20.9727 39.2124 20.506C39.5018 20.0393 39.8891 19.666 40.3744 19.386C40.8598 19.106 41.4011 18.966 41.9984 18.966C42.7638 18.966 43.3984 19.19 43.9024 19.638C44.4064 20.086 44.7471 20.702 44.9244 21.486L40.1504 23.166L39.8424 22.396L43.7624 20.968L43.4824 21.15C43.3704 20.842 43.1838 20.576 42.9224 20.352C42.6611 20.1187 42.3204 20.002 41.9004 20.002C41.5458 20.002 41.2284 20.0907 40.9484 20.268C40.6684 20.436 40.4491 20.6693 40.2904 20.968C40.1318 21.2667 40.0524 21.6073 40.0524 21.99C40.0524 22.3913 40.1364 22.746 40.3044 23.054C40.4724 23.3527 40.7011 23.5907 40.9904 23.768C41.2891 23.936 41.6251 24.02 41.9984 24.02C42.2504 24.02 42.4931 23.9733 42.7264 23.88C42.9691 23.7867 43.1931 23.6653 43.3984 23.516L44.0004 24.482C43.7111 24.678 43.3844 24.8367 43.0204 24.958C42.6658 25.0793 42.3158 25.14 41.9704 25.14ZM47.7179 19.204L47.8299 20.618L47.7739 20.394C47.9605 19.9647 48.2639 19.624 48.6839 19.372C49.1039 19.1107 49.5892 18.98 50.1399 18.98C50.6905 18.98 51.1385 19.1433 51.4839 19.47C51.8385 19.7873 52.0205 20.2027 52.0299 20.716V25H50.7139V21.178C50.7045 20.8607 50.6112 20.604 50.4339 20.408C50.2659 20.2027 49.9999 20.1 49.6359 20.1C49.2999 20.1 48.9965 20.1933 48.7259 20.38C48.4552 20.5667 48.2405 20.8233 48.0819 21.15C47.9325 21.4767 47.8579 21.8547 47.8579 22.284V25H46.5559V19.204H47.7179ZM56.6462 25.14C56.1142 25.14 55.6288 25.014 55.1902 24.762C54.7608 24.5007 54.4202 24.1367 54.1682 23.67C53.9162 23.194 53.7902 22.648 53.7902 22.032C53.7902 21.388 53.9208 20.8373 54.1822 20.38C54.4528 19.9227 54.8168 19.5727 55.2742 19.33C55.7315 19.0873 56.2448 18.966 56.8142 18.966C57.2715 18.966 57.7055 19.064 58.1162 19.26C58.5362 19.456 58.8628 19.7267 59.0962 20.072L59.0402 20.534V14.164H60.3282V25H59.0262V23.558L59.1662 23.922C58.8955 24.2767 58.5455 24.5707 58.1162 24.804C57.6868 25.028 57.1968 25.14 56.6462 25.14ZM57.0522 24.034C57.3975 24.034 57.7055 23.9733 57.9762 23.852C58.2468 23.7213 58.4708 23.544 58.6482 23.32C58.8255 23.096 58.9515 22.83 59.0262 22.522V21.43C58.9515 21.15 58.8162 20.9073 58.6202 20.702C58.4335 20.4873 58.2048 20.3193 57.9342 20.198C57.6728 20.0673 57.3788 20.002 57.0522 20.002C56.6975 20.002 56.3708 20.0907 56.0722 20.268C55.7828 20.436 55.5495 20.6693 55.3722 20.968C55.1948 21.2667 55.1062 21.612 55.1062 22.004C55.1062 22.3867 55.1948 22.732 55.3722 23.04C55.5495 23.3387 55.7875 23.5813 56.0862 23.768C56.3848 23.9453 56.7068 24.034 57.0522 24.034Z" fill="#F8F5EC"/>
</g>
</svg>
