<svg width="46" height="45" viewBox="0 0 46 45" fill="none" xmlns="http://www.w3.org/2000/svg">
<path d="M6.23179 7.35156V37.7266C2.56518 33.6766 0.320312 28.3516 0.320312 22.5016C0.320312 16.6516 2.56518 11.3266 6.23179 7.35156Z" fill="#89BCD9"/>
<path d="M8.625 10.6484L21.5704 36.6734H8.625V10.6484Z" fill="#89BCD9"/>
<path d="M22.7678 33.7492L10.0469 8.32422H35.4887L22.7678 33.7492Z" fill="#89BCD9"/>
<path d="M22.7717 0C28.6083 0 33.9211 2.25 37.8871 5.925H7.65625C11.6222 2.25 16.935 0 22.7717 0Z" fill="#89BCD9"/>
<path d="M36.9141 36.6734H23.9688L36.9141 10.6484V36.6734Z" fill="#89BCD9"/>
<path d="M37.8871 39.0742C33.9211 42.7492 28.6083 44.9992 22.7717 44.9992C16.935 44.9992 11.6222 42.7492 7.65625 39.0742H37.8871Z" fill="#89BCD9"/>
<path d="M39.3047 37.6516V7.35156C42.9713 11.3266 45.2162 16.6516 45.2162 22.5016C45.2162 28.3516 42.9713 33.6766 39.3047 37.6516Z" fill="#89BCD9"/>
<path d="M8.625 10.6484L21.5704 36.6734H8.625V10.6484Z" fill="#89BCD9"/>
<path d="M22.7678 33.7492L10.0469 8.32422H35.4887L22.7678 33.7492Z" fill="#89BCD9"/>
<path d="M23.9688 36.6734L36.9141 10.6484V36.6734H23.9688Z" fill="#89BCD9"/>
<path d="M10.0469 8.32422H35.4887L22.7678 33.7492L10.0469 8.32422Z" fill="#89BCD9"/>
</svg>
