<svg width="36" height="33" viewBox="0 0 36 33" fill="none" xmlns="http://www.w3.org/2000/svg">
<path fill-rule="evenodd" clip-rule="evenodd" d="M35.7518 16.4909C35.7518 18.7096 35.3152 20.8659 34.4628 22.8971C33.7351 24.6263 32.7164 26.2096 31.4482 27.5951C31.2819 27.7721 31.1155 27.9492 30.9492 28.1263C30.7933 28.2826 30.6374 28.4284 30.4814 28.5846C29.2548 29.7201 27.8827 30.6471 26.3858 31.3659C26.1779 31.4701 25.9596 31.5638 25.7413 31.6576C25.7309 31.6576 25.7309 31.668 25.7205 31.668C24.4731 32.1992 23.1321 32.4596 21.7703 32.4596H0.148438V27.6159H20.2214C26.2922 27.6159 31.2715 22.7513 31.3546 16.668C31.3546 16.6159 31.3546 16.5638 31.3546 16.5117C31.3546 9.86589 25.97 4.47005 19.3379 4.47005C12.7058 4.44922 7.32108 9.83463 7.32108 16.4909H10.107L5.12771 23.4701L0.148438 16.4909H2.93433C2.93433 14.2721 3.37093 12.1159 4.22333 10.0846C5.05494 8.1263 6.22959 6.36589 7.73689 4.85547C9.24418 3.34505 11.001 2.15755 12.9552 1.33464C14.9823 0.480469 17.1341 0.0429688 19.3483 0.0429688C19.7952 0.0429688 20.2318 0.0638021 20.6684 0.0950521C21.9574 0.199219 23.2152 0.449218 24.4419 0.855468C24.8785 1.0013 25.3047 1.15755 25.7309 1.34505C27.6852 2.17839 29.4419 3.35547 30.9492 4.86588C32.4565 6.3763 33.6416 8.13672 34.4628 10.0951C35.3152 12.1159 35.7518 14.2721 35.7518 16.4909Z" fill="#89BCD9"/>
</svg>
